<svg xmlns="http://www.w3.org/2000/svg" xmlns:xlink="http://www.w3.org/1999/xlink" version="1.1" width="256" height="256" viewBox="0 0 256 256" xml:space="preserve">

<defs>
</defs>
<g style="stroke: none; stroke-width: 0; stroke-dasharray: none; stroke-linecap: butt; stroke-linejoin: miter; stroke-miterlimit: 10; fill: none; fill-rule: nonzero; opacity: 1;" transform="translate(1.4065934065934016 1.4065934065934016) scale(2.81 2.81)" >
	<path d="M 77.455 50.043 c -3.145 0.017 -5.87 0.772 -8.154 1.897 c -0.835 -1.667 -1.681 -3.134 -1.823 -4.224 c -0.166 -1.273 -0.358 -2.032 -0.158 -3.549 c 0.2 -1.517 1.078 -3.664 1.065 -3.825 s -0.197 -0.933 -2.011 -0.946 c -1.814 -0.013 -3.366 0.349 -3.549 0.828 c -0.183 0.479 -0.532 1.557 -0.749 2.681 c -0.318 1.645 -3.622 7.512 -5.499 10.582 c -0.614 -1.198 -1.135 -2.254 -1.244 -3.09 c -0.166 -1.273 -0.358 -2.032 -0.158 -3.549 c 0.2 -1.516 1.078 -3.664 1.065 -3.825 c -0.013 -0.161 -0.197 -0.933 -2.011 -0.946 c -1.814 -0.013 -3.366 0.349 -3.549 0.828 c -0.183 0.479 -0.378 1.598 -0.749 2.681 c -0.372 1.083 -4.764 10.87 -5.915 13.407 c -0.586 1.293 -1.096 2.331 -1.457 3.04 c -0.001 -0.002 -0.002 -0.004 -0.002 -0.004 s -0.022 0.047 -0.06 0.127 c -0.308 0.604 -0.492 0.938 -0.492 0.938 s 0.002 0.005 0.005 0.013 c -0.245 0.443 -0.507 0.855 -0.636 0.855 c -0.091 0 -0.272 -1.18 0.039 -2.8 c 0.654 -3.395 2.224 -8.69 2.208 -8.872 c -0.008 -0.094 0.292 -1.016 -1.025 -1.498 c -1.28 -0.469 -1.736 0.313 -1.853 0.315 c -0.113 0.002 -0.197 0.276 -0.197 0.276 s 1.426 -5.954 -2.721 -5.954 c -2.593 0 -6.186 2.836 -7.956 5.407 c -1.117 0.609 -3.507 1.914 -6.043 3.307 c -0.974 0.535 -1.968 1.082 -2.91 1.601 c -0.064 -0.071 -0.128 -0.142 -0.194 -0.212 c -5.029 -5.365 -14.325 -9.16 -13.931 -16.373 c 0.143 -2.622 1.055 -9.527 17.863 -17.902 c 13.769 -6.861 24.791 -4.973 26.696 -0.789 c 2.721 5.978 -5.891 17.088 -20.19 18.691 c -5.448 0.611 -8.316 -1.501 -9.03 -2.287 c -0.751 -0.828 -0.863 -0.865 -1.144 -0.71 c -0.457 0.253 -0.167 0.984 0 1.42 c 0.427 1.111 2.179 3.081 5.166 4.062 c 2.627 0.862 9.024 1.336 16.759 -1.656 c 8.664 -3.351 15.429 -12.673 13.442 -20.465 c -2.021 -7.925 -15.161 -10.53 -27.598 -6.112 c -7.402 2.63 -15.414 6.757 -21.175 12.145 c -6.85 6.407 -7.942 11.984 -7.492 14.314 c 1.599 8.279 13.011 13.671 17.581 17.667 c -0.226 0.124 -0.437 0.241 -0.629 0.347 c -2.291 1.133 -10.99 5.686 -13.166 10.496 c -2.468 5.456 0.393 9.371 2.287 9.898 c 5.869 1.633 11.891 -1.304 15.127 -6.132 c 3.236 -4.826 2.841 -11.11 1.355 -13.979 c -0.018 -0.036 -0.039 -0.07 -0.058 -0.106 c 0.592 -0.35 1.195 -0.706 1.793 -1.057 c 1.166 -0.685 2.31 -1.323 3.304 -1.864 c -0.556 1.523 -0.963 3.348 -1.175 5.985 c -0.249 3.097 1.02 7.1 2.681 8.675 c 0.731 0.693 1.611 0.71 2.169 0.71 c 1.933 0 2.815 -1.608 3.786 -3.51 c 1.191 -2.332 2.248 -5.047 2.248 -5.047 s -1.326 7.334 2.287 7.334 c 1.317 0 2.641 -1.707 3.231 -2.578 c 0.002 0.009 0.002 0.015 0.002 0.015 s 0.034 -0.057 0.101 -0.17 c 0.137 -0.209 0.214 -0.342 0.214 -0.342 s 0.003 -0.014 0.007 -0.038 c 0.529 -0.919 1.703 -3.014 3.463 -6.469 c 2.274 -4.464 4.456 -10.055 4.456 -10.055 s 0.203 1.367 0.868 3.628 c 0.391 1.33 1.222 2.801 1.877 4.211 c -0.528 0.732 -0.852 1.152 -0.852 1.152 s 0.003 0.008 0.009 0.022 c -0.422 0.56 -0.894 1.164 -1.389 1.752 c -1.795 2.138 -3.933 4.579 -4.219 5.284 c -0.337 0.83 -0.258 1.441 0.394 1.932 c 0.476 0.359 1.324 0.415 2.208 0.355 c 1.613 -0.108 2.748 -0.508 3.308 -0.752 c 0.873 -0.309 1.889 -0.794 2.844 -1.495 c 1.761 -1.295 2.823 -3.146 2.721 -5.599 c -0.056 -1.352 -0.488 -2.692 -1.033 -3.957 c 0.16 -0.23 0.32 -0.461 0.481 -0.696 c 2.776 -4.058 4.929 -8.517 4.929 -8.517 s 0.203 1.367 0.868 3.628 c 0.336 1.144 1 2.393 1.597 3.617 c -2.61 2.121 -4.229 4.585 -4.791 6.202 c -1.039 2.99 -0.225 4.345 1.301 4.653 c 0.692 0.14 1.668 -0.177 2.403 -0.488 c 0.914 -0.303 2.013 -0.808 3.039 -1.562 c 1.761 -1.295 3.454 -3.107 3.352 -5.56 c -0.047 -1.117 -0.349 -2.225 -0.76 -3.29 c 2.212 -0.922 5.077 -1.434 8.726 -1.008 c 7.827 0.914 9.363 5.801 9.07 7.847 c -0.294 2.046 -1.935 3.17 -2.484 3.51 c -0.549 0.34 -0.716 0.457 -0.67 0.71 c 0.067 0.367 0.321 0.353 0.789 0.274 c 0.644 -0.109 4.11 -1.664 4.259 -5.44 C 90.183 55.265 85.59 50 77.455 50.043 z M 17.121 70.383 c -2.593 2.828 -6.215 3.897 -7.768 2.997 c -1.677 -0.972 -1.013 -5.137 2.169 -8.138 c 1.939 -1.829 4.443 -3.514 6.103 -4.552 c 0.378 -0.228 0.933 -0.561 1.608 -0.966 c 0.112 -0.064 0.175 -0.099 0.175 -0.099 l -0.002 -0.004 c 0.13 -0.078 0.264 -0.158 0.402 -0.24 C 20.965 63.654 19.843 67.415 17.121 70.383 z M 36.01 57.543 c -0.903 2.201 -2.793 7.834 -3.943 7.532 c -0.987 -0.259 -1.589 -4.54 -0.197 -8.754 c 0.7 -2.121 2.197 -4.655 3.076 -5.639 c 1.415 -1.583 2.973 -2.101 3.352 -1.459 C 38.779 50.04 36.576 56.163 36.01 57.543 z M 51.615 64.989 c -0.383 0.2 -0.734 0.326 -0.897 0.229 c -0.12 -0.071 0.158 -0.335 0.158 -0.335 s 1.952 -2.1 2.721 -3.056 c 0.447 -0.556 0.966 -1.216 1.531 -1.954 c 0.005 0.074 0.007 0.147 0.007 0.219 C 55.129 62.607 52.698 64.306 51.615 64.989 z M 63.636 62.248 c -0.286 -0.203 -0.238 -0.86 0.701 -2.906 c 0.369 -0.803 1.21 -2.156 2.672 -3.448 c 0.169 0.532 0.273 1.041 0.27 1.516 C 67.261 60.575 65.002 61.758 63.636 62.248 z" style="stroke: none; stroke-width: 1; stroke-dasharray: none; stroke-linecap: butt; stroke-linejoin: miter; stroke-miterlimit: 10; fill: rgb(208,99,151); fill-rule: nonzero; opacity: 1;" transform=" matrix(1 0 0 1 0 0) " stroke-linecap="round" />
</g>
</svg>